<?xml version="1.0" encoding="UTF-8" standalone="no"?>
<!-- Created with Inkscape (http://www.inkscape.org/) -->

<svg
   version="1.1"
   id="svg840"
   xml:space="preserve"
   width="246"
   height="270.33737"
   viewBox="0 0 246 270.33737"
   xmlns="http://www.w3.org/2000/svg"
   xmlns:svg="http://www.w3.org/2000/svg"><defs
     id="defs844"><clipPath
       clipPathUnits="userSpaceOnUse"
       id="clipPath858"><path
         d="M 0,500 H 500 V 0 H 0 Z"
         id="path856" /></clipPath></defs><g
     id="g846"
     transform="matrix(1.3333333,0,0,-1.3333333,-49.97893,529.24794)"><g
       id="g35320"
       transform="translate(30)"><g
         id="g872-3-2"
         transform="translate(85.187371,273.25293)"
         style="fill:#4063d8;fill-opacity:1"><path
           d="m 0,0 c 0.25,-1.77 1.77,-13.63 0.33,-22.29 l 3.72,-4.1 3.68,4.1 C 6.29,-13.63 7.81,-1.77 8.06,0 7.91,-2.1 6.95,-17.74 11.42,-24.86 l -7.37,-8.27 -7.4,8.27 C 1.11,-17.74 0.15,-2.1 0,0 m 4.03,-35.91 9.93,9.93 C 8.13,-12.46 10.41,0.43 10.41,0.43 L 13.8,1.78 10.23,6.93 -23.5,55.57 -43.87,43.95 -46.89,10.02 v -0.01 l -0.77,-8.62 c -0.31,-3.51 1.06,-6.98 3.77,-9.23 3.62,-3.02 8.14,-8.14 7.68,-14.7 -0.78,-10.79 -9.93,-19.38 -9.93,-19.38 0,0 1.55,-27 43.07,-37.15 0,0 -1.55,2.85 -3.37,7.95 0,0 -23.52,8.53 -33.65,28.97 0.98,-1.53 9.32,-13.78 31.51,-22.18 -2.63,9.52 -4.84,23.09 -3.02,38.94 v 0.05 c 0.39,3.45 0.97,7.01 1.79,10.65 l -16.2,4.32 c -4.43,1.18 -7.95,4.57 -9.22,8.97 -0.84,2.94 -1.41,6.55 -1,10.47 0.16,1.48 0.45,3 0.92,4.56 L -2.35,0.43 c 0,0 2.28,-12.89 -3.54,-26.41 z"
           style="fill:#4063d8;fill-opacity:1;fill-rule:nonzero;stroke:none"
           id="path874-6-7" /></g><g
         id="g876-7-0"
         transform="translate(139.39727,231.33293)"
         style="fill:#9558b2;fill-opacity:1"><path
           d="m 0,0 c 0,0 -1.55,-27 -43.07,-37.15 0,0 1.54,2.85 3.37,7.95 l 0.01,0.01 c 0.72,0.26 23.75,8.87 33.7,29.08 -0.1,-0.16 -0.48,-0.76 -1.18,-1.68 -3,-3.91 -11.86,-13.6 -30.39,-20.62 2.62,9.55 4.83,23.14 3.01,39.03 -0.4,3.44 -0.98,6.98 -1.79,10.61 l 6.22,1.66 19.47,-28.07 -1.83,3.04 -15.43,25.61 7.77,2.08 c 4.42,1.18 7.95,4.57 9.21,8.97 0.85,2.94 1.43,6.55 1.01,10.48 -0.15,1.47 -0.45,2.99 -0.92,4.55 l -26.41,-10.58 -3.74,6.22 -30.14,50.05 20.95,11.95 L -3.4,86.51 -2.28,85.87 0.75,51.95 1.51,43.31 C 1.83,39.8 0.45,36.33 -2.25,34.08 -5.88,31.06 -10.41,25.94 -9.94,19.38 -9.62,15 -7.92,10.98 -6.02,7.75 -3.23,3.03 0,0 0,0"
           style="fill:#9558b2;fill-opacity:1;fill-rule:nonzero;stroke:none"
           id="path878-5-9" /></g><g
         id="g880-3-3"
         transform="translate(154.75717,338.43293)"
         style="fill:#cb3c33;fill-opacity:1"><path
           d="m 0,0 c -3.23,2.15 -7.22,3.35 -11.38,4.79 -6.59,2.12 -13.19,5.96 -16.71,12.21 -3.67,6.15 -3.73,14.83 1.25,20.28 3.11,3.38 8.07,5.26 12.48,3.96 -4.4,0.14 -8.36,-2.22 -10.58,-5.49 C -29.5,29.01 -26.53,19.79 -20.44,15 -13.86,9.33 -4.65,9.18 2.7,3.9 14.65,-4.53 16.47,-22.65 5.4,-32.41 12.98,-21.73 10.6,-6.94 0,0 m -101.45,39.85 c 1.91,4.12 4.91,7.74 8.7,9.96 -2.31,-3.7 -3.99,-7.45 -5.01,-11.31 -3.35,-11.91 0.79,-24.14 9.32,-32.98 -13.19,4.76 -19.1,21.96 -13.01,34.33 m 128.02,-94.9 c -1.3,-3.05 -3.87,-5.56 -7.07,-6.51 -5.17,-1.51 -11.26,1.37 -13.37,6.34 -1.87,4.41 -0.71,9.56 1.39,13.88 2.09,4.31 5.05,8.16 7.02,12.54 3.2,7.1 3.55,15.44 0.96,22.79 -2.59,7.35 -8.08,13.64 -15.03,17.17 -3.64,1.86 -7.6,2.96 -11.33,4.6 -3.74,1.64 -7.36,3.95 -9.43,7.47 -2.06,3.52 -2.12,8.45 0.74,11.35 2.86,2.91 8.72,2.34 10.2,-1.46 1.73,5.67 -0.66,12.05 -4.93,16.15 -4.29,4.1 -10.15,6.18 -16.01,7.05 -10.88,1.61 -22.3,-0.73 -31.67,-6.48 -2.91,-1.78 -5.65,-3.89 -8.85,-5.08 -3.18,-1.19 -7.04,-1.31 -9.75,0.76 -2.34,1.79 -3.4,5.1 -2.52,7.91 0.89,2.81 3.66,4.92 6.59,5.04 -14.72,0.73 -29.06,-10.73 -31.62,-25.25 -2.56,-14.51 7.01,-30.19 21.09,-34.54 l 19.48,11.42 c -2.58,8.67 0.66,14.63 5.6,20.18 4.94,5.55 12.19,8.97 19.62,9.25 -6.18,-5.47 -9.35,-14.13 -8.19,-22.3 1.17,-8.16 6.64,-15.59 14.1,-19.12 7.27,-3.44 16.36,-3.51 22.1,-9.14 5.58,-5.48 5.96,-14.26 5.33,-22.06 -0.64,-7.79 -1.84,-16.08 1.64,-23.08 3.16,-6.39 10.24,-10.64 17.37,-10.42 7.13,0.23 13.94,4.88 16.71,11.46 z"
           style="fill:#cb3c33;fill-opacity:1;fill-rule:nonzero;stroke:none"
           id="path882-5-6" /></g></g><text
       xml:space="preserve"
       style="font-style:normal;font-weight:normal;font-size:30px;line-height:1.25;font-family:sans-serif;fill:#000000;fill-opacity:1;stroke:none;stroke-width:0.75"
       x="82.536903"
       y="-175.46634"
       id="text2310"
       transform="scale(1,-1)"><tspan
         id="tspan2308"
         style="stroke-width:0.75"></tspan></text></g></svg>
